<svg id="health-insurance" xmlns="http://www.w3.org/2000/svg" width="43" height="43" viewBox="0 0 43 43">
  <g id="Group_3734" data-name="Group 3734">
    <path id="Path_2207" data-name="Path 2207" d="M34.938,43H8.063A8.062,8.062,0,0,1,0,34.938V8.063A8.062,8.062,0,0,1,8.063,0H34.938A8.062,8.062,0,0,1,43,8.063V34.938A8.062,8.062,0,0,1,34.938,43Z" fill="#eff7f9"/>
  </g>
  <path id="Path_2208" data-name="Path 2208" d="M12.021,13.375a2.688,2.688,0,1,1,2.688-2.687A2.69,2.69,0,0,1,12.021,13.375Z" transform="translate(3.208 2.75)" fill="#00bdff"/>
  <path id="Path_2209" data-name="Path 2209" d="M13.6,27.9h-2.24a1.57,1.57,0,0,1-1.568-1.568V21.506a.222.222,0,0,0-.124-.2l-.8-.4A1.559,1.559,0,0,1,8,19.5V16.026a3.362,3.362,0,0,1,3.359-3.359H13.6a3.362,3.362,0,0,1,3.359,3.359V19.5a1.56,1.56,0,0,1-.867,1.4l-.8.4a.222.222,0,0,0-.124.2v4.821A1.57,1.57,0,0,1,13.6,27.9Z" transform="translate(2.75 4.354)" fill="#00bdff"/>
  <path id="Path_2210" data-name="Path 2210" d="M21.6,26.75h-.447a1.57,1.57,0,0,1-1.568-1.568V23.167H17.568A1.57,1.57,0,0,1,16,21.6v-.447a1.57,1.57,0,0,1,1.568-1.568h2.016V17.567A1.57,1.57,0,0,1,21.152,16H21.6a1.57,1.57,0,0,1,1.568,1.568v2.016h2.016a1.57,1.57,0,0,1,1.568,1.568V21.6a1.57,1.57,0,0,1-1.568,1.568H23.168v2.016A1.571,1.571,0,0,1,21.6,26.75Z" transform="translate(5.5 5.5)" fill="#303e43"/>
</svg>
