<svg id="Group_3628" data-name="Group 3628" xmlns="http://www.w3.org/2000/svg" width="28.184" height="28.184" viewBox="0 0 28.184 28.184">
  <g id="Group_3627" data-name="Group 3627">
    <path id="Path_2183" data-name="Path 2183" d="M279,281.789a2.2,2.2,0,0,0,2.2,2.2h2.587a2.2,2.2,0,0,0,2.2-2.2V279.2a2.2,2.2,0,0,0-2.2-2.2H281.2a2.2,2.2,0,0,0-2.2,2.2Zm2.2-2.587h2.587v2.587H281.2Z" transform="translate(-263.642 -261.752)" fill="#000ab7"/>
    <circle id="Ellipse_311" data-name="Ellipse 311" cx="1" cy="1" r="1" transform="translate(20.218 11)" fill="#00bdff"/>
    <circle id="Ellipse_312" data-name="Ellipse 312" cx="1" cy="1" r="1" transform="translate(15.218 11)" fill="#00bdff"/>
    <path id="Path_2184" data-name="Path 2184" d="M27.083,19.376a1.1,1.1,0,0,0,1.1-1.1V6.606a4.409,4.409,0,0,0-4.4-4.4H22.349V1.1a1.1,1.1,0,0,0-2.2,0V2.2H15.138V1.1a1.1,1.1,0,0,0-2.2,0V2.2H7.982V1.1a1.1,1.1,0,0,0-2.2,0V2.2H4.4A4.409,4.409,0,0,0,0,6.606V23.78a4.409,4.409,0,0,0,4.4,4.4H23.78a4.409,4.409,0,0,0,4.4-4.4,1.1,1.1,0,0,0-2.2,0,2.2,2.2,0,0,1-2.2,2.2H4.4a2.2,2.2,0,0,1-2.2-2.2V6.606A2.2,2.2,0,0,1,4.4,4.4H5.78V5.5a1.1,1.1,0,0,0,2.2,0V4.4h4.954V5.5a1.1,1.1,0,0,0,2.2,0V4.4h5.009V5.5a1.1,1.1,0,0,0,2.2,0V4.4H23.78a2.2,2.2,0,0,1,2.2,2.2v11.67A1.1,1.1,0,0,0,27.083,19.376Z" fill="#00bdff"/>
    <circle id="Ellipse_313" data-name="Ellipse 313" cx="1" cy="1" r="1" transform="translate(6.218 20)" fill="#00bdff"/>
    <circle id="Ellipse_314" data-name="Ellipse 314" cx="1" cy="1" r="1" transform="translate(6.218 11)" fill="#00bdff"/>
    <circle id="Ellipse_315" data-name="Ellipse 315" cx="1" cy="1" r="1" transform="translate(6.218 15)" fill="#00bdff"/>
    <circle id="Ellipse_316" data-name="Ellipse 316" cx="1" cy="1" r="1" transform="translate(10.218 15)" fill="#00bdff"/>
    <circle id="Ellipse_317" data-name="Ellipse 317" cx="1" cy="1" r="1" transform="translate(10.218 11)" fill="#00bdff"/>
    <circle id="Ellipse_318" data-name="Ellipse 318" cx="1" cy="1" r="1" transform="translate(10.218 20)" fill="#00bdff"/>
  </g>
</svg>
