<svg xmlns="http://www.w3.org/2000/svg" width="26.953" height="30" viewBox="0 0 26.953 30">
  <g id="Group_3793" data-name="Group 3793" transform="translate(-1014 -487)">
    <g id="Group_3788" data-name="Group 3788" transform="translate(1014 487)">
      <g id="Group_3787" data-name="Group 3787" transform="translate(0)">
        <path id="Path_2220" data-name="Path 2220" d="M49.007,6.95a13.365,13.365,0,0,0-8.651-3.926V1.758h1.289a.879.879,0,1,0,0-1.758H37.31a.879.879,0,0,0,0,1.758H38.6V3.024a13.337,13.337,0,0,0-6.252,2.011L31.512,4.2a2.15,2.15,0,0,0-3.044,0L27.2,5.471a2.154,2.154,0,0,0,0,3.038l.841.842a13.478,13.478,0,1,0,20.969-2.4ZM28.442,6.712l1.27-1.272a.392.392,0,0,1,.556,0l.637.638q-.5.411-.957.872t-.868.956l-.638-.639A.393.393,0,0,1,28.442,6.712Zm11.036,21.53A11.745,11.745,0,1,1,51.2,16.5,11.745,11.745,0,0,1,39.478,28.242Z" transform="translate(-26.001)" fill="#00bdff"/>
      </g>
    </g>
    <g id="Group_3790" data-name="Group 3790" transform="translate(1017.398 493.4)">
      <g id="Group_3789" data-name="Group 3789" transform="translate(0)">
        <path id="Path_2221" data-name="Path 2221" d="M94.077,109.226a10.1,10.1,0,1,0,10.078,10.1A10.1,10.1,0,0,0,94.077,109.226Zm.879,18.39v-1.027a.879.879,0,0,0-1.758,0v1.027a8.345,8.345,0,0,1-7.4-7.414h1.009a.879.879,0,0,0,0-1.758H85.8a8.345,8.345,0,0,1,7.4-7.414v1.027a.879.879,0,0,0,1.758,0V111.03a8.345,8.345,0,0,1,7.4,7.414h-1.009a.879.879,0,0,0,0,1.758h1.009A8.345,8.345,0,0,1,94.956,127.616Z" transform="translate(-83.999 -109.226)" fill="#00bdff"/>
      </g>
    </g>
    <g id="Group_3792" data-name="Group 3792" transform="translate(1026.647 498.556)">
      <g id="Group_3791" data-name="Group 3791">
        <path id="Path_2222" data-name="Path 2222" d="M244.836,201.664H243.6v-3.555a.879.879,0,1,0-1.758,0v4.434a.879.879,0,0,0,.879.879h2.119a.879.879,0,1,0,0-1.758Z" transform="translate(-241.838 -197.23)" fill="#000ab7"/>
      </g>
    </g>
  </g>
</svg>
