<svg id="bin" xmlns="http://www.w3.org/2000/svg" width="43" height="43" viewBox="0 0 43 43">
  <path id="Path_2192" data-name="Path 2192" d="M34.938,43H8.063A8.062,8.062,0,0,1,0,34.938V8.063A8.062,8.062,0,0,1,8.063,0H34.938A8.062,8.062,0,0,1,43,8.063V34.938A8.062,8.062,0,0,1,34.938,43Z" fill="#eff7f9"/>
  <path id="Path_2193" data-name="Path 2193" d="M10,16.063V27.037A2.462,2.462,0,0,0,12.463,29.5h11.2a2.462,2.462,0,0,0,2.464-2.463V16.063Zm5.375,8.959a.9.9,0,1,1-1.793,0V19.646a.9.9,0,0,1,1.793,0Zm3.584,0a.9.9,0,1,1-1.793,0V19.646a.9.9,0,1,1,1.793,0Zm3.582,0a.9.9,0,1,1-1.793,0V19.646a.9.9,0,0,1,1.794,0v5.375ZM15.375,9.791H20.75v.9h1.791v-.9A1.8,1.8,0,0,0,20.75,8H15.375a1.8,1.8,0,0,0-1.791,1.791v.9h1.791Z" transform="translate(3.438 2.75)" fill="#00bdff"/>
  <path id="Path_2194" data-name="Path 2194" d="M28.374,12.463V14.7a.677.677,0,0,1-.672.672H9.339a.677.677,0,0,1-.672-.672v-2.24A2.462,2.462,0,0,1,11.13,10H25.911A2.462,2.462,0,0,1,28.374,12.463Z" transform="translate(2.979 3.438)" fill="#303e43"/>
</svg>
