<svg id="editing" xmlns="http://www.w3.org/2000/svg" width="43" height="43" viewBox="0 0 43 43">
  <path id="Path_2195" data-name="Path 2195" d="M34.938,43H8.063A8.062,8.062,0,0,1,0,34.938V8.063A8.062,8.062,0,0,1,8.063,0H34.938A8.062,8.062,0,0,1,43,8.063V34.938A8.062,8.062,0,0,1,34.938,43Z" fill="#eff7f9"/>
  <path id="Path_2196" data-name="Path 2196" d="M26.709,23.153H15.062a.9.9,0,1,1,0-1.793H26.709a.9.9,0,1,1,0,1.793Z" transform="translate(4.87 7.343)" fill="#0095c9"/>
  <path id="Path_2197" data-name="Path 2197" d="M23.124,11.246,21.857,9.979a1.833,1.833,0,0,0-2.533,0l-1.853,1.853,3.8,3.8,1.853-1.853a1.789,1.789,0,0,0,0-2.533Z" transform="translate(6.006 3.256)" fill="#0095c9"/>
  <path id="Path_2198" data-name="Path 2198" d="M19.174,12.171,9.941,21.4a.446.446,0,0,0-.12.214l-.977,4.144a.449.449,0,0,0,.437.551.442.442,0,0,0,.1-.012l4.144-.977a.44.44,0,0,0,.214-.12l9.233-9.233Z" transform="translate(3.036 4.184)" fill="#00bdff"/>
</svg>
