<svg xmlns="http://www.w3.org/2000/svg" width="31.35" height="42.312" viewBox="0 0 31.35 42.312">
  <g id="Group_3803" data-name="Group 3803" transform="translate(22259.459 6524)">
    <path id="Path_2129" data-name="Path 2129" d="M94.139,417.734H81.7a1.371,1.371,0,1,0,0,2.741H94.139a1.371,1.371,0,1,0,0-2.741Zm0,0" transform="translate(-22335.135 -6927.036)" fill="#9b9b9b"/>
    <path id="Path_2130" data-name="Path 2130" d="M99.127,361.5H81.368a1.425,1.425,0,0,0,0,2.741H99.127a1.425,1.425,0,0,0,0-2.741Zm0,0" transform="translate(-22335.135 -6860.032)" fill="#9b9b9b"/>
    <path id="Path_2131" data-name="Path 2131" d="M99.127,305.266H81.368a1.425,1.425,0,0,0,0,2.741H99.127a1.425,1.425,0,0,0,0-2.741Zm0,0" transform="translate(-22335.135 -6808.937)" fill="#9b9b9b"/>
    <path id="Subtraction_3" data-name="Subtraction 3" d="M20.223,42.312H3.3A3.041,3.041,0,0,1,.968,41.171,4.25,4.25,0,0,1,0,38.416V3.894A4.25,4.25,0,0,1,.968,1.139,3.045,3.045,0,0,1,3.3,0H24.166a.964.964,0,0,1,.709.326l6.137,6.637a1.364,1.364,0,0,1,.339.916V32.042a6.607,6.607,0,0,0-.77-.336,7.661,7.661,0,0,0-1.329-.579V10.446h-5.7a1.158,1.158,0,0,1-1.05-1.24V2.479H3.3a1.107,1.107,0,0,0-.848.414,1.544,1.544,0,0,0-.352,1V38.416a1.545,1.545,0,0,0,.35,1,1.115,1.115,0,0,0,.849.416h16a7.622,7.622,0,0,0,.919,2.476ZM24.6,3.394V7.967h4.228Z" transform="translate(-22259.459 -6524)" fill="#9b9b9b"/>
  </g>
</svg>
