<svg id="Group_3574" data-name="Group 3574" xmlns="http://www.w3.org/2000/svg" width="24.012" height="22" viewBox="0 0 24.012 22">
  <path id="Path_2126" data-name="Path 2126" d="M87.34,82.346H73.034a2.951,2.951,0,0,0-5.595,0H65.206a.939.939,0,0,0,0,1.879h2.233a2.951,2.951,0,0,0,5.595,0H87.34a.939.939,0,1,0,0-1.879Zm-17.1,2.012a1.073,1.073,0,1,1,1.073-1.073A1.074,1.074,0,0,1,70.237,84.358Z" transform="translate(-64.267 -80.334)" fill="#2c2c2c"/>
  <path id="Path_2127" data-name="Path 2127" d="M87.34,210.879H85.107a2.95,2.95,0,0,0-5.595,0H65.206a.939.939,0,1,0,0,1.879H79.512a2.951,2.951,0,0,0,5.595,0H87.34a.939.939,0,1,0,0-1.879Zm-5.03,2.012a1.073,1.073,0,1,1,1.073-1.073A1.074,1.074,0,0,1,82.31,212.891Z" transform="translate(-64.267 -200.818)" fill="#2c2c2c"/>
  <path id="Path_2128" data-name="Path 2128" d="M87.34,339.412H77.058a2.951,2.951,0,0,0-5.595,0H65.206a.939.939,0,1,0,0,1.879h6.257a2.951,2.951,0,0,0,5.595,0H87.34a.939.939,0,1,0,0-1.879Zm-13.079,2.012a1.073,1.073,0,1,1,1.073-1.073A1.074,1.074,0,0,1,74.261,341.424Z" transform="translate(-64.267 -321.303)" fill="#2c2c2c"/>
</svg>
