<svg xmlns="http://www.w3.org/2000/svg" width="43.858" height="53.391" viewBox="0 0 43.858 53.391">
  <g id="Group_3800" data-name="Group 3800" transform="translate(-877.88 -393.508)">
    <path id="Path_2225" data-name="Path 2225" d="M126.818,116.545H96.813a3.991,3.991,0,0,1-3.992-3.992V74.841a3.992,3.992,0,0,1,3.992-3.992h30.005a3.992,3.992,0,0,1,3.992,3.992v37.713a3.992,3.992,0,0,1-3.992,3.992Z" transform="translate(785.059 326.689)" fill="#00bdff"/>
    <path id="Path_2226" data-name="Path 2226" d="M154.718,138.526h-28.9V100.951h28.9v37.575Z" transform="translate(756.516 300.648)" fill="#fff"/>
    <path id="Path_2227" data-name="Path 2227" d="M202.448,70.175h-7.7a1.508,1.508,0,0,1-1.508-1.508V65.214a1.508,1.508,0,0,1,1.508-1.508h7.7a1.508,1.508,0,0,1,1.508,1.508v3.452a1.509,1.509,0,0,1-1.508,1.508Z" transform="translate(698.182 332.868)" fill="#1a4bac"/>
    <path id="Path_2228" data-name="Path 2228" d="M210.2,52.908h-5.256a1.33,1.33,0,0,1-1.329-1.329V42.3a1.331,1.331,0,0,1,1.329-1.329H210.2a1.33,1.33,0,0,1,1.329,1.329v9.278a1.33,1.33,0,0,1-1.329,1.329Zm-4.882-1.7h4.508V42.675H205.32V51.2Z" transform="translate(689.208 352.536)" fill="#1a4bac"/>
    <path id="Path_2229" data-name="Path 2229" d="M211.37,83.272a.688.688,0,1,1-.2-.487A.686.686,0,0,1,211.37,83.272Z" transform="translate(683.691 316.537)" fill="#fff"/>
    <path id="Path_2230" data-name="Path 2230" d="M247.084,83.272a.688.688,0,1,1-.2-.487A.686.686,0,0,1,247.084,83.272Z" transform="translate(652.795 316.537)" fill="#fff"/>
    <g id="Group_3797" data-name="Group 3797" transform="translate(885.158 411.146)">
      <path id="Path_2231" data-name="Path 2231" d="M157.464,144.029H146.775v-1.948h10.689v1.948Z" transform="translate(-146.775 -142.081)" fill="#70daff"/>
      <path id="Path_2232" data-name="Path 2232" d="M170.024,175.259H146.775v-1.948h23.249v1.948Z" transform="translate(-146.775 -169.098)" fill="#70daff"/>
      <path id="Path_2233" data-name="Path 2233" d="M170.024,206.49H146.775v-1.948h23.249v1.948Z" transform="translate(-146.775 -196.117)" fill="#70daff"/>
      <path id="Path_2234" data-name="Path 2234" d="M170.024,237.721H146.775v-1.948h23.249v1.948Z" transform="translate(-146.775 -223.135)" fill="#70daff"/>
      <path id="Path_2235" data-name="Path 2235" d="M170.024,268.951H146.775V267h23.249v1.948Z" transform="translate(-146.775 -250.152)" fill="#70daff"/>
      <path id="Path_2236" data-name="Path 2236" d="M170.024,300.182H146.775v-1.948h23.249v1.948Z" transform="translate(-146.775 -277.171)" fill="#70daff"/>
    </g>
    <g id="Group_3798" data-name="Group 3798" transform="translate(900.729 425.892)">
      <path id="Path_2237" data-name="Path 2237" d="M283.229,291.55a10.5,10.5,0,1,1-3.077-7.427A10.471,10.471,0,0,1,283.229,291.55Z" transform="translate(-262.221 -281.046)" fill="#ff8000"/>
      <path id="Path_2238" data-name="Path 2238" d="M292.637,302.7a8.766,8.766,0,1,1-2.567-6.2A8.739,8.739,0,0,1,292.637,302.7Z" transform="translate(-273.367 -292.192)" fill="#fff"/>
    </g>
    <g id="Group_3799" data-name="Group 3799" transform="translate(904.225 429.386)">
      <path id="Path_2239" data-name="Path 2239" d="M335.917,400.983h-1.543V399.44h1.543v1.543Z" transform="translate(-328.136 -386.965)" fill="#06daf7"/>
      <path id="Path_2240" data-name="Path 2240" d="M335.917,308.5h-1.543v-1.543h1.543V308.5Z" transform="translate(-328.136 -306.957)" fill="#06daf7"/>
      <path id="Path_2241" data-name="Path 2241" d="M366.885,384.619l-.545.545-.545.545-.545-.545-.546-.545.546-.546.545-.545.545.545Z" transform="translate(-354.374 -373.199)" fill="#06daf7"/>
      <path id="Path_2242" data-name="Path 2242" d="M301.489,319.223l-.545.545-.545.545-.545-.545-.546-.545.546-.546.545-.545.545.545Z" transform="translate(-297.8 -316.625)" fill="#06daf7"/>
      <path id="Path_2243" data-name="Path 2243" d="M382.159,353.2v1.543h-1.543V353.2h1.543Z" transform="translate(-368.141 -346.961)" fill="#06daf7"/>
      <path id="Path_2244" data-name="Path 2244" d="M289.675,353.2v1.543h-1.543V353.2h1.543Z" transform="translate(-288.132 -346.961)" fill="#06daf7"/>
      <path id="Path_2245" data-name="Path 2245" d="M365.794,318.132l.545.545.545.546-.545.545-.545.545-.545-.545-.546-.545.546-.546Z" transform="translate(-354.374 -316.625)" fill="#06daf7"/>
      <path id="Path_2246" data-name="Path 2246" d="M300.4,383.528l.545.545.545.545-.545.545-.545.545-.545-.545-.546-.545.546-.545Z" transform="translate(-297.8 -373.199)" fill="#06daf7"/>
    </g>
    <path id="Path_2247" data-name="Path 2247" d="M338.7,318h-.479v-6.045h.479V318Z" transform="translate(572.762 118.104)" fill="#052481"/>
    <path id="Path_2248" data-name="Path 2248" d="M345.019,359.48l-.02.238-.02.239-3.38-.282-3.38-.282.02-.238.02-.239,3.38.282Z" transform="translate(572.762 77.479)" fill="#a54f2d"/>
    <path id="Path_2249" data-name="Path 2249" d="M299.776,333.217l-.065.1-.065.1-3.078-2-3.078-2,.065-.1.065-.1,3.078,2Z" transform="translate(611.458 103.172)" fill="#f95d95"/>
    <path id="Path_2250" data-name="Path 2250" d="M332.907,350.405a1.327,1.327,0,1,1-.389-.938A1.323,1.323,0,0,1,332.907,350.405Z" transform="translate(579.654 85.99)" fill="#052481"/>
  </g>
</svg>
