<svg id="enable" xmlns="http://www.w3.org/2000/svg" width="43" height="43" viewBox="0 0 43 43">
  <path id="Path_2199" data-name="Path 2199" d="M34.938,43H8.063A8.062,8.062,0,0,1,0,34.938V8.063A8.062,8.062,0,0,1,8.063,0H34.938A8.062,8.062,0,0,1,43,8.063V34.938A8.062,8.062,0,0,1,34.938,43Z" fill="#eff7f9"/>
  <path id="Path_2200" data-name="Path 2200" d="M29.278,16.94a11.456,11.456,0,0,0-21.057,0,2.953,2.953,0,0,0,0,2.245,11.456,11.456,0,0,0,21.057,0A2.962,2.962,0,0,0,29.278,16.94Z" transform="translate(2.75 3.438)" fill="#00bdff"/>
  <circle id="Ellipse_327" data-name="Ellipse 327" cx="3.584" cy="3.584" r="3.584" transform="translate(17.916 17.916)" fill="#e1f7ff"/>
</svg>
